<?xml version="1.0" encoding="UTF-8" standalone="no"?>
<!DOCTYPE svg PUBLIC "-//W3C//DTD SVG 1.1//EN"
 "http://www.w3.org/Graphics/SVG/1.1/DTD/svg11.dtd">
<!-- Generated by graphviz version 2.43.0 (0)
 -->
<!-- Title: snakemake_dag Pages: 1 -->
<svg width="108pt" height="260pt"
 viewBox="0.00 0.00 107.50 260.00" xmlns="http://www.w3.org/2000/svg" xmlns:xlink="http://www.w3.org/1999/xlink">
<g id="graph0" class="graph" transform="scale(1 1) rotate(0) translate(4 256)">
<title>snakemake_dag</title>
<polygon fill="white" stroke="transparent" points="-4,4 -4,-256 103.5,-256 103.5,4 -4,4"/>
<!-- 0 -->
<g id="node1" class="node">
<title>0</title>
<path fill="none" stroke="#56d88a" stroke-width="2" d="M59.5,-36C59.5,-36 29.5,-36 29.5,-36 23.5,-36 17.5,-30 17.5,-24 17.5,-24 17.5,-12 17.5,-12 17.5,-6 23.5,0 29.5,0 29.5,0 59.5,0 59.5,0 65.5,0 71.5,-6 71.5,-12 71.5,-12 71.5,-24 71.5,-24 71.5,-30 65.5,-36 59.5,-36"/>
<text text-anchor="middle" x="44.5" y="-15.5" font-family="sans" font-size="10.00">get_var</text>
</g>
<!-- 1 -->
<g id="node2" class="node">
<title>1</title>
<path fill="none" stroke="#d85656" stroke-width="2" stroke-dasharray="5,2" d="M63.5,-180C63.5,-180 25.5,-180 25.5,-180 19.5,-180 13.5,-174 13.5,-168 13.5,-168 13.5,-156 13.5,-156 13.5,-150 19.5,-144 25.5,-144 25.5,-144 63.5,-144 63.5,-144 69.5,-144 75.5,-150 75.5,-156 75.5,-156 75.5,-168 75.5,-168 75.5,-174 69.5,-180 63.5,-180"/>
<text text-anchor="middle" x="44.5" y="-159.5" font-family="sans" font-size="10.00">index_ref</text>
</g>
<!-- 1&#45;&gt;0 -->
<g id="edge1" class="edge">
<title>1&#45;&gt;0</title>
<path fill="none" stroke="grey" stroke-width="2" d="M41.25,-143.89C39.45,-133.54 37.41,-120.06 36.5,-108 35.3,-92.04 35.3,-87.96 36.5,-72 37.14,-63.52 38.34,-54.34 39.62,-46.04"/>
<polygon fill="grey" stroke="grey" stroke-width="2" points="43.08,-46.55 41.25,-36.11 36.18,-45.41 43.08,-46.55"/>
</g>
<!-- 3 -->
<g id="node4" class="node">
<title>3</title>
<path fill="none" stroke="#88d856" stroke-width="2" stroke-dasharray="5,2" d="M87.5,-108C87.5,-108 57.5,-108 57.5,-108 51.5,-108 45.5,-102 45.5,-96 45.5,-96 45.5,-84 45.5,-84 45.5,-78 51.5,-72 57.5,-72 57.5,-72 87.5,-72 87.5,-72 93.5,-72 99.5,-78 99.5,-84 99.5,-84 99.5,-96 99.5,-96 99.5,-102 93.5,-108 87.5,-108"/>
<text text-anchor="middle" x="72.5" y="-87.5" font-family="sans" font-size="10.00">align_</text>
</g>
<!-- 1&#45;&gt;3 -->
<g id="edge4" class="edge">
<title>1&#45;&gt;3</title>
<path fill="none" stroke="grey" stroke-width="2" d="M51.42,-143.7C54.57,-135.81 58.38,-126.3 61.88,-117.55"/>
<polygon fill="grey" stroke="grey" stroke-width="2" points="65.19,-118.69 65.66,-108.1 58.69,-116.09 65.19,-118.69"/>
</g>
<!-- 2 -->
<g id="node3" class="node">
<title>2</title>
<path fill="none" stroke="#56c1d8" stroke-width="2" stroke-dasharray="5,2" d="M77,-252C77,-252 12,-252 12,-252 6,-252 0,-246 0,-240 0,-240 0,-228 0,-228 0,-222 6,-216 12,-216 12,-216 77,-216 77,-216 83,-216 89,-222 89,-228 89,-228 89,-240 89,-240 89,-246 83,-252 77,-252"/>
<text text-anchor="middle" x="44.5" y="-231.5" font-family="sans" font-size="10.00">downoload_ref</text>
</g>
<!-- 2&#45;&gt;1 -->
<g id="edge3" class="edge">
<title>2&#45;&gt;1</title>
<path fill="none" stroke="grey" stroke-width="2" d="M44.5,-215.7C44.5,-207.98 44.5,-198.71 44.5,-190.11"/>
<polygon fill="grey" stroke="grey" stroke-width="2" points="48,-190.1 44.5,-180.1 41,-190.1 48,-190.1"/>
</g>
<!-- 3&#45;&gt;0 -->
<g id="edge2" class="edge">
<title>3&#45;&gt;0</title>
<path fill="none" stroke="grey" stroke-width="2" d="M65.58,-71.7C62.43,-63.81 58.62,-54.3 55.12,-45.55"/>
<polygon fill="grey" stroke="grey" stroke-width="2" points="58.31,-44.09 51.34,-36.1 51.81,-46.69 58.31,-44.09"/>
</g>
</g>
</svg>
